<?xml version="1.0" standalone="no"?>
<!DOCTYPE svg PUBLIC "-//W3C//DTD SVG 20010904//EN"
 "http://www.w3.org/TR/2001/REC-SVG-20010904/DTD/svg10.dtd">
<svg version="1.0" xmlns="http://www.w3.org/2000/svg"
 width="700.000000pt" height="700.000000pt" viewBox="0 0 700.000000 700.000000"
 preserveAspectRatio="xMidYMid meet">
<metadata>
Created by potrace 1.11, written by Peter Selinger 2001-2013
</metadata>
<g transform="translate(0.000000,700.000000) scale(0.100000,-0.100000)"
fill="#000000" stroke="none">
<path d="M0 3500 l0 -3500 3500 0 3500 0 0 3500 0 3500 -3500 0 -3500 0 0
-3500z m3835 2069 c215 -25 429 -89 668 -201 81 -39 87 -43 87 -71 0 -41 48
-839 54 -900 l5 -48 -51 3 -52 3 -140 319 -141 319 -95 68 c-210 151 -381 217
-586 226 -217 10 -361 -41 -493 -175 -130 -131 -181 -262 -181 -467 0 -259 93
-428 329 -594 119 -84 217 -139 490 -275 620 -311 831 -474 956 -739 92 -192
115 -501 56 -729 -108 -417 -472 -741 -963 -858 -253 -60 -688 -38 -1005 51
-122 34 -305 105 -415 160 -76 38 -78 40 -78 76 0 41 -47 853 -54 921 l-4 43
51 -3 51 -3 148 -320 c101 -218 157 -327 176 -343 64 -54 254 -174 342 -216
192 -91 407 -129 597 -108 136 16 203 35 311 88 163 80 270 212 323 399 19 65
23 105 23 210 -1 228 -51 362 -189 501 -112 113 -220 180 -599 371 -531 266
-680 358 -832 508 -173 172 -248 338 -269 595 -31 395 223 806 649 1048 246
141 483 181 831 141z"/>
</g>
</svg>
