<?xml version="1.0" encoding="utf-8"?>
<!-- Generator: Adobe Illustrator 16.0.0, SVG Export Plug-In . SVG Version: 6.00 Build 0)  -->
<!DOCTYPE svg PUBLIC "-//W3C//DTD SVG 1.1//EN" "http://www.w3.org/Graphics/SVG/1.1/DTD/svg11.dtd">
<svg version="1.1" id="Calque_1" xmlns="http://www.w3.org/2000/svg" xmlns:xlink="http://www.w3.org/1999/xlink" x="0px" y="0px"
	 width="141.957px" height="64px" viewBox="0 0 141.957 64" enable-background="new 0 0 141.957 64" xml:space="preserve">
<path fill="#FFFFFF" d="M66.185,51.067c-0.448,0-0.852-0.271-1.021-0.686c-0.013-0.029-0.583-1.374-3.085-5.686
	c-1.388-2.392-2.403-4.778-3.299-6.883c-0.783-1.842-1.522-3.58-2.397-5.073c-0.65-1.111-0.688-2.333-0.104-3.351
	c0.677-1.182,2.114-1.945,3.662-1.945c0.921,0,1.774,0.256,2.51,0.728l0.125-10.385c0.038-1.45,0.89-4.164,3.84-4.164
	c1.113,0.016,1.999,0.386,2.629,1.07c1.05,1.139,1.049,2.747,1.033,3.119l0.129,4.652c0.478-0.208,1.023-0.315,1.629-0.315
	c1.548,0.017,2.656,0.481,3.35,1.384c0.157,0.203,0.281,0.415,0.378,0.627c0.575-0.258,1.238-0.372,2.051-0.312
	c1.108,0.078,2.021,0.521,2.642,1.28c0.288,0.354,0.493,0.751,0.637,1.161c0.598-0.266,1.302-0.324,2.056-0.155
	c2.729,0.607,3.239,3.452,3.128,4.92l0.01,4.398c0.006,0.185,0.127,5.314-2.868,10.419c-2.043,3.482-2.492,4.301-2.59,4.487
	c-0.042,0.109-0.103,0.214-0.181,0.308c-0.223,0.268-0.571,0.423-0.917,0.397L66.185,51.067L66.185,51.067z M59.941,29.653
	c-0.747,0-1.464,0.344-1.746,0.835c-0.189,0.331-0.159,0.703,0.095,1.137c0.945,1.614,1.711,3.416,2.523,5.324
	c0.913,2.146,1.856,4.365,3.176,6.638c1.663,2.867,2.5,4.467,2.896,5.271l12.048-0.002c0.365-0.655,1.055-1.845,2.379-4.102
	c2.677-4.562,2.567-9.22,2.565-9.266l-0.01-4.475c0-0.034,0.001-0.066,0.004-0.099c0.007-0.088,0.158-2.276-1.403-2.624
	c-0.128-0.029-0.248-0.043-0.355-0.043c-0.179,0-0.719,0-1.009,1.128c-0.053,0.37-0.109,0.601-0.109,0.601
	c-0.139,0.559-0.685,0.918-1.249,0.829c-0.568-0.092-0.971-0.602-0.926-1.174c0.004-0.051,0.027-0.309,0.11-0.665
	c0.133-1.069-0.01-1.98-0.387-2.441c-0.147-0.182-0.42-0.427-1.084-0.474c-0.887-0.06-1.493,0.095-1.612,1.221l0.043,1.067
	c0.023,0.576-0.4,1.075-0.975,1.141c-0.572,0.079-1.102-0.316-1.213-0.884c-0.013-0.066-0.121-0.648-0.069-1.376l-0.028-0.69
	c-0.004-0.106,0.008-0.213,0.033-0.316l0,0c0,0,0.183-0.842-0.207-1.341c-0.327-0.415-1.029-0.509-1.562-0.515h-0.001
	c-0.704,0-1.354,0.173-1.571,1.401l0.062,2.191c0.016,0.572-0.406,1.061-0.973,1.128c-0.57,0.077-1.093-0.309-1.211-0.868
	c-0.01-0.054-0.266-1.284-0.09-2.588l-0.216-7.792c-0.001-0.035,0-0.069,0.001-0.104c0.015-0.272-0.037-1.095-0.454-1.541
	c-0.215-0.23-0.531-0.347-0.966-0.352l0,0c-1.571,0-1.662,1.791-1.668,1.995l-0.16,13.438c-0.006,0.529-0.387,0.979-0.908,1.074
	c-0.519,0.09-1.036-0.194-1.227-0.688C61.791,29.848,60.475,29.653,59.941,29.653L59.941,29.653z"/>
<g>
	<g>
		<g>
			<line fill="none" stroke="#FFFFFF" stroke-width="2" stroke-miterlimit="10" x1="19.427" y1="14" x2="55.427" y2="14"/>
			<g>
				<polygon fill="#FFFFFF" points="26.274,22.18 27.639,20.715 20.415,14.002 27.639,7.287 26.274,5.822 17.479,14.002 				"/>
			</g>
		</g>
	</g>
	<g>
		<g>
			<line fill="none" stroke="#FFFFFF" stroke-width="2" stroke-miterlimit="10" x1="122.427" y1="14" x2="76.427" y2="14"/>
			<g>
				<polygon fill="#FFFFFF" points="115.683,5.82 114.318,7.285 121.542,13.998 114.318,20.713 115.683,22.178 124.479,13.998 				
					"/>
			</g>
		</g>
	</g>
</g>
</svg>
