<?xml version="1.0" standalone="no"?>
<!DOCTYPE svg PUBLIC "-//W3C//DTD SVG 1.1//EN" "http://www.w3.org/Graphics/SVG/1.1/DTD/svg11.dtd" >
<svg xmlns="http://www.w3.org/2000/svg">
<metadata>
Created by FontPrep 20130207 at Fri Sep 22 15:39:23 2017
 By yannick mathey
Copyright 2017 Production Systems SAS - All rights reserved - End-User License Agreement: http://www.productiontype.com/license
</metadata>
<defs>
<font id="76c37db6fa7aa1995c93ff2fe0916354" horiz-adv-x='1024' >
  <font-face 
    font-family="AntiqueGothic-Regular"
    font-weight="400"
    font-stretch="condensed"
    units-per-em="2048"
    panose-1="2 0 0 0 0 0 0 0 0 0"
    ascent="1843"
    descent="-205"
    x-height="1229"
    cap-height="1434"
    bbox="-45 -205 756 1454"
    underline-thickness="63"
    underline-position="-90"
    unicode-range="U+0020-201D"
  />
<missing-glyph horiz-adv-x="620" 
 />
    <glyph glyph-name=".notdef" horiz-adv-x="620" 
 />
    <glyph glyph-name=".null" horiz-adv-x="0" 
 />
    <glyph glyph-name="nonmarkingreturn" horiz-adv-x="681" 
 />
    <glyph glyph-name="space" unicode=" " horiz-adv-x="245" 
 />
    <glyph glyph-name="exclam" unicode="!" horiz-adv-x="243" 
d="M61 131h121v-131h-121v131zM63 1434h117v-484l-30 -602h-56l-31 602v484z" />
    <glyph glyph-name="quotedbl" unicode="&#x22;" horiz-adv-x="430" 
d="M358 1434v-369h-61l-2 369h63zM135 1434v-369h-61l-2 369h63z" />
    <glyph glyph-name="ampersand" unicode="&#x26;" horiz-adv-x="569" 
d="M147 390q0 -168 25 -236t73 -68q47 0 73 35t40 117l-69 208q-16 44 -50 130t-42 108q-50 -126 -50 -294zM160 1163q0 -102 63 -278q84 154 84 299q0 84 -16 121q-17 37 -59 37t-57 -39q-15 -38 -15 -140zM229 -12q-100 0 -145 83t-45 259q0 229 123 446q-98 254 -99 393
q0 274 175 275q78 0 122 -65t43 -181q1 -116 -27 -177q-54 -122 -120 -220q8 -23 57 -137t72 -175l8 -24q12 152 13 348h96q0 -307 -39 -541l96 -272h-121l-37 113q-43 -125 -172 -125z" />
    <glyph glyph-name="quotesingle" unicode="'" horiz-adv-x="208" 
d="M135 1434v-369h-61l-2 369h63z" />
    <glyph glyph-name="parenleft" unicode="(" horiz-adv-x="319" 
d="M82 642q0 499 160 792h75q-163 -299 -163 -792t163 -792h-75q-160 293 -160 792z" />
    <glyph glyph-name="parenright" unicode=")" horiz-adv-x="319" 
d="M238 644q0 -490 -160 -791h-76q164 299 164 791t-164 792h76q160 -302 160 -792z" />
    <glyph glyph-name="plus" unicode="+" horiz-adv-x="608" 
d="M516 651h-174v-176h-76v176h-174v78h174v176h76v-176h174v-78z" />
    <glyph glyph-name="comma" unicode="," horiz-adv-x="258" 
d="M100 -143h-71l59 307h117z" />
    <glyph glyph-name="hyphen" unicode="-" horiz-adv-x="358" 
d="M25 645v94h309v-94h-309z" />
    <glyph glyph-name="period" unicode="." horiz-adv-x="245" 
d="M61 131h123v-131h-123v131z" />
    <glyph glyph-name="slash" unicode="/" horiz-adv-x="303" 
d="M78 -184h-58l205 1618h58z" />
    <glyph glyph-name="zero" unicode="0" horiz-adv-x="567" 
d="M369 1241q0 109 -85 109t-85 -109v-1051q0 -106 85 -106t85 106v1051zM283 -16q-86 0 -144 56q-57 56 -57 157v1040q0 101 57 157t143 56t145 -56q58 -56 58 -157v-1040q0 -101 -58 -157t-144 -56z" />
    <glyph glyph-name="one" unicode="1" horiz-adv-x="360" 
d="M279 1434v-1434h-119v1116q-61 -74 -148 -96l-4 8q137 96 137 272v134h134z" />
    <glyph glyph-name="two" unicode="2" horiz-adv-x="514" 
d="M180 102h283v-102h-400v221q0 115 21 209q20 94 42 144t98 202t96 231q22 80 22 212t-84 133q-36 0 -60 -28t-24 -81v-67h-117v63q-1 103 55 159t145 56t145 -66t57 -213q0 -146 -36 -242q-13 -36 -17 -50q-4 -15 -22 -53t-25 -52q-8 -14 -57 -108q-48 -94 -68 -142
q-52 -122 -54 -307v-119z" />
    <glyph glyph-name="three" unicode="3" horiz-adv-x="495" 
d="M434 195q0 -103 -57 -159t-143 -56t-144 56q-57 56 -57 159v63h117v-82q0 -45 24 -70q24 -24 60 -24t60 24t23 70v397q0 123 -84 123h-102v103h100q86 0 86 121v335q0 45 -23 71q-24 26 -62 26t-60 -25t-22 -72v-81h-117v65q0 103 57 159t143 56q85 0 143 -56t58 -157
v-301q0 -117 -84 -178q84 -61 84 -178v-389z" />
    <glyph glyph-name="four" unicode="4" horiz-adv-x="532" 
d="M504 344h-111v-344h-114v344h-240v119l291 971h98l-289 -988h140v220l94 403h20v-623h111v-102z" />
    <glyph glyph-name="five" unicode="5" horiz-adv-x="512" 
d="M453 195q-1 -99 -57 -157t-144 -58t-144 57t-57 158v63h117v-82q0 -45 24 -70q24 -24 60 -24t60 24t24 70v492q0 94 -84 94q-37 0 -61 -25t-23 -69h-94v766h96q0 -45 24 -67t56 -21q78 0 78 88h102q0 -96 -42 -142t-106 -47q-64 0 -92 29v-451q39 41 106 41t112 -56
t45 -159v-454z" />
    <glyph glyph-name="six" unicode="6" horiz-adv-x="555" 
d="M199 176q-1 -42 23 -68t61 -26t61 26t23 68v451q0 45 -24 69q-25 24 -61 25q-36 0 -60 -26t-23 -68v-451zM483 195q0 -103 -57 -159t-143 -56t-144 56q-57 56 -57 159v1054q0 93 57 149t143 56t144 -55q57 -55 57 -150v-65h-116v78q0 42 -24 66q-25 24 -61 24t-60 -25
t-23 -65v-504q45 66 121 66t119 -59q44 -58 44 -157v-413z" />
    <glyph glyph-name="seven" unicode="7" horiz-adv-x="503" 
d="M41 1331v103h422v-111l-246 -1323h-113l252 1331h-315z" />
    <glyph glyph-name="eight" unicode="8" horiz-adv-x="567" 
d="M199 188q0 -108 85 -108t85 108v418q0 106 -86 107q-84 0 -84 -107v-418zM199 915q0 -108 85 -108t85 108v330q0 109 -85 109t-85 -109v-330zM485 193q0 -101 -58 -157t-144 -56t-144 56q-57 56 -57 157v393q0 113 80 172q-80 51 -80 172v311q0 101 57 157t143 56
t145 -56q58 -56 58 -157v-311q0 -119 -79 -174q80 -53 79 -170v-393z" />
    <glyph glyph-name="nine" unicode="9" horiz-adv-x="555" 
d="M188 807q0 -45 24 -70t60 -25t61 26q24 26 23 69v450q0 43 -23 69q-24 26 -61 26q-36 0 -60 -26t-24 -69v-450zM473 195q0 -99 -57 -157q-58 -58 -144 -58t-143 57t-57 158v61h116v-78q0 -44 24 -70t60 -26t61 26q24 26 23 70v498q-44 -66 -120 -66t-120 58t-44 157v414
q0 103 57 159t143 56t144 -56t57 -159v-1044z" />
    <glyph glyph-name="question" unicode="?" horiz-adv-x="475" 
d="M168 131h121v-131h-121v131zM231 1352q-39 0 -61 -27t-23 -76v-196h-116v198q0 91 55 147t145 56q89 0 145 -68t56 -205t-39 -229q-9 -28 -57 -112t-64 -117l-16 -375h-55l-23 404q58 116 78 160q58 130 59 286q0 154 -84 154z" />
    <glyph glyph-name="A" unicode="A" horiz-adv-x="501" 
d="M190 504h121l-59 710zM354 0l-35 401h-137l-35 -401h-116l139 1434h162l139 -1434h-117z" />
    <glyph glyph-name="B" unicode="B" horiz-adv-x="583" 
d="M199 102h92q41 0 67 32t27 83v373q0 45 -24 74t-60 28h-102v-590zM199 795h88q37 1 61 29t23 77v313q0 53 -27 85t-65 32h-80v-536zM291 0h-209v1434h197q88 0 148 -60t60 -155v-287q0 -106 -75 -168q90 -55 90 -170v-379q0 -95 -60 -155t-151 -60z" />
    <glyph glyph-name="C" unicode="C" horiz-adv-x="524" 
d="M483 1174h-116v81q0 45 -24 71q-25 26 -61 26t-60 -26t-23 -71v-1079q-1 -45 23 -70q24 -24 61 -24t61 24t23 70v82h116v-63q0 -103 -57 -159t-143 -56t-144 56q-57 56 -57 159v1044q0 103 57 159t143 56t144 -56q57 -56 57 -159v-65z" />
    <glyph glyph-name="D" unicode="D" horiz-adv-x="583" 
d="M199 102h92q41 0 67 32t27 83v997q0 53 -27 85t-67 32h-92v-1229zM82 0v1434h209q90 0 150 -60t61 -155v-1004q0 -95 -60 -155t-151 -60h-209z" />
    <glyph glyph-name="E" unicode="E" horiz-adv-x="460" 
d="M410 1325h-211v-522h157v-109h-157v-585h221v-109h-338v1434h328v-109z" />
    <glyph glyph-name="F" unicode="F" horiz-adv-x="430" 
d="M199 0h-117v1434h307v-109h-190v-563h157v-109h-157v-653z" />
    <glyph glyph-name="G" unicode="G" horiz-adv-x="569" 
d="M283 590v102h200v-520q0 -125 35 -178l-6 -6q-57 29 -74 71q-49 -79 -145 -79t-154 56q-57 56 -57 159v1044q0 103 57 159t143 56t144 -56q57 -56 57 -159v-65h-116v81q0 45 -24 71q-25 26 -61 26t-60 -26t-23 -71v-1079q-1 -45 23 -70q24 -24 61 -24t61 24t23 70v414
h-84z" />
    <glyph glyph-name="H" unicode="H" horiz-adv-x="583" 
d="M385 1434h117v-1434h-117v694h-186v-694h-117v1434h117v-637h186v637z" />
    <glyph glyph-name="I" unicode="I" horiz-adv-x="280" 
d="M199 0h-117v1434h117v-1434z" />
    <glyph glyph-name="J" unicode="J" horiz-adv-x="503" 
d="M305 1434h117v-1246q0 -96 -57 -152t-143 -56t-144 55q-57 55 -58 153v99h117v-117q0 -41 24 -65q25 -23 61 -23t60 24t23 64v1264z" />
    <glyph glyph-name="K" unicode="K" horiz-adv-x="550" 
d="M199 0h-117v1434h117v-623l221 625h121l-232 -633l230 -803h-119l-178 621l-43 -119v-502z" />
    <glyph glyph-name="L" unicode="L" horiz-adv-x="419" 
d="M389 0h-307v1434h117v-1332h190v-102z" />
    <glyph glyph-name="M" unicode="M" horiz-adv-x="737" 
d="M199 1143v-1143h-117v1434h166l121 -895l120 895h166v-1434h-116v1143h-7l-143 -1143h-41l-143 1143h-6z" />
    <glyph glyph-name="N" unicode="N" horiz-adv-x="587" 
d="M184 0h-102v1434h154l170 -1108v1108h100v-1434h-152l-170 1108v-1108z" />
    <glyph glyph-name="O" unicode="O" horiz-adv-x="565" 
d="M283 1352q-37 0 -61 -26t-23 -71v-1079q-1 -45 23 -70q24 -24 61 -24t61 24t23 70v1079q1 45 -23 71t-61 26zM283 -20q-86 0 -144 56q-57 56 -57 159v1044q0 103 57 159t143 56t144 -56q57 -56 57 -159v-1044q0 -103 -57 -159t-143 -56z" />
    <glyph glyph-name="P" unicode="P" horiz-adv-x="552" 
d="M199 1331v-667h102q37 0 61 28t23 74v465q0 45 -25 73t-61 27h-100zM301 561h-102v-561h-117v1434h217q86 0 144 -56t59 -145v-467q0 -92 -58 -148t-143 -57z" />
    <glyph glyph-name="Q" unicode="Q" horiz-adv-x="565" 
d="M367 176v1079q0 45 -24 71q-25 26 -61 26t-60 -26t-23 -71v-1079q-1 -45 23 -70q24 -24 61 -24t61 24t23 70zM82 195v1044q0 103 57 159t143 56t144 -56q57 -56 57 -159v-1053q0 -127 43 -196l-4 -6q-72 23 -92 61q-51 -65 -142 -65t-149 56q-57 56 -57 159z" />
    <glyph glyph-name="R" unicode="R" horiz-adv-x="575" 
d="M199 750h94q37 0 61 28t23 72v379q0 47 -24 75t-60 27h-94v-581zM199 0h-117v1434h211q86 0 143 -56t58 -145v-354q0 -109 -80 -166q80 -57 80 -164v-549h-117v545q0 47 -24 75t-60 27h-94v-647z" />
    <glyph glyph-name="S" unicode="S" horiz-adv-x="499" 
d="M51 1214q1 110 57 176q56 64 145 64t144 -55t56 -148v-77h-117v73q0 104 -84 105q-37 0 -61 -32q-23 -32 -23 -133t28 -191t97 -225q69 -136 92 -184q23 -49 45 -145t23 -213q-1 -117 -57 -183t-145 -66t-145 55q-55 55 -55 147v76h117v-74q0 -50 22 -76t61 -26
q37 0 61 33t24 98q0 147 -27 232t-97 225t-94 194q-24 52 -46 146t-21 204z" />
    <glyph glyph-name="T" unicode="T" horiz-adv-x="481" 
d="M471 1434v-103h-172v-1331h-117v1331h-172v103h461z" />
    <glyph glyph-name="U" unicode="U" horiz-adv-x="565" 
d="M367 1434h116v-1239q0 -103 -57 -159t-143 -56t-144 56q-57 56 -57 159v1239h117v-1258q-1 -45 23 -70q24 -24 61 -24t61 24t23 70v1258z" />
    <glyph glyph-name="V" unicode="V" horiz-adv-x="501" 
d="M471 1434l-139 -1434h-164l-137 1434h116l105 -1225l102 1225h117z" />
    <glyph glyph-name="W" unicode="W" horiz-adv-x="811" 
d="M506 0l-100 1161l-101 -1161h-168l-80 1434h117l57 -1241l105 1241h137l109 -1241l55 1241h117l-80 -1434h-168z" />
    <glyph glyph-name="X" unicode="X" horiz-adv-x="481" 
d="M346 0l-119 518l-104 -518h-113l168 727l-162 707h119l119 -516l104 516h113l-170 -723l164 -711h-119z" />
    <glyph glyph-name="Y" unicode="Y" horiz-adv-x="499" 
d="M307 0h-117v604l-172 830h125l107 -662l106 662h125l-174 -830v-604z" />
    <glyph glyph-name="Z" unicode="Z" horiz-adv-x="481" 
d="M436 102v-102h-399v74l276 1257h-276v103h399v-74l-276 -1258h276z" />
    <glyph glyph-name="a" unicode="a" horiz-adv-x="524" 
d="M172 225q0 -139 82 -139q88 0 88 139v447q-10 -40 -94 -78q-30 -14 -52 -53q-24 -39 -24 -101v-215zM61 444q0 74 29 123t70 73t83 41q99 40 99 95v281q0 86 -75 86t-74 -86v-242h-111v225q0 92 52 146t133 53q81 0 133 -53t53 -146v-1040h-111v90q-35 -100 -129 -100
q-152 0 -152 211v243z" />
    <glyph glyph-name="b" unicode="b" 
d="M182 227q0 -141 88 -141t88 141v777q0 139 -88 139t-88 -139v-777zM469 203q0 -211 -158 -211q-90 0 -129 96v-88h-110v1434h110v-291q39 96 129 96q158 0 158 -211v-825z" />
    <glyph glyph-name="c" unicode="c" 
d="M469 760h-111v272q0 111 -88 111t-88 -111v-837q0 -109 88 -109t88 109v262h111v-256q0 -99 -56 -155q-57 -56 -143 -56t-142 55t-56 156v827q0 100 56 156t142 55q86 0 142 -56t57 -155v-268z" />
    <glyph glyph-name="d" unicode="d" 
d="M182 225q0 -139 88 -139t88 139v779q0 139 -88 139t-88 -139v-779zM358 0v90q-35 -100 -129 -100q-158 0 -157 211v827q0 211 157 211q94 0 129 -100v295h111v-1434h-111z" />
    <glyph glyph-name="e" unicode="e" 
d="M182 1032v-295h176v295q0 111 -88 111t-88 -111zM270 1239q86 0 142 -56t57 -155v-387h-287v-446q0 -109 88 -109t88 109v262h111v-256q0 -99 -56 -155q-57 -56 -143 -56t-142 55t-56 156v827q0 100 56 156t142 55z" />
    <glyph glyph-name="f" unicode="f" horiz-adv-x="391" 
d="M360 1126h-135v-1126h-110v1126h-99v103h99q2 98 51 151t133 54h61v-97h-47q-39 -1 -63 -25t-25 -73v-10h135v-103z" />
    <glyph glyph-name="g" unicode="g" 
d="M182 344q0 -139 88 -139t88 139v660q0 141 -88 141t-88 -141v-660zM469 16q0 -94 -57 -152q-58 -58 -144 -58t-141 52t-55 158v29h110v-47q0 -43 26 -70q26 -26 62 -26t63 26q26 26 25 70v211q-35 -100 -129 -100q-158 0 -157 210v709q0 211 157 211q94 0 129 -100v90
h111v-1213z" />
    <glyph glyph-name="h" unicode="h" 
d="M182 1004v-1004h-110v1434h110v-291q39 96 129 96q158 0 158 -211v-1028h-111v1004q0 139 -88 139t-88 -139z" />
    <glyph glyph-name="i" unicode="i" horiz-adv-x="260" 
d="M74 1229h110v-1229h-110v1229zM72 1413h116v-117h-116v117z" />
    <glyph glyph-name="j" unicode="j" horiz-adv-x="274" 
d="M-45 -109h47q39 0 64 25t24 74v1239h111v-1223q0 -102 -49 -156t-136 -55h-61v96zM86 1413h117v-117h-117v117z" />
    <glyph glyph-name="k" unicode="k" horiz-adv-x="497" 
d="M182 0h-110v1434h110v-742l199 537h113l-205 -524h2l207 -705h-113l-158 547l-45 -117v-430z" />
    <glyph glyph-name="l" unicode="l" horiz-adv-x="253" 
d="M72 1434h110v-1434h-110v1434z" />
    <glyph glyph-name="m" unicode="m" horiz-adv-x="827" 
d="M182 1004v-1004h-110v1229h110v-86q39 96 129 96q119 0 150 -125q31 125 137 125q158 0 158 -211v-1028h-111v1004q0 139 -88 139t-88 -139v-1004h-111v1004q0 139 -88 139t-88 -139z" />
    <glyph glyph-name="n" unicode="n" 
d="M182 1004v-1004h-110v1229h110v-86q39 96 129 96q158 0 158 -211v-1028h-111v1004q0 139 -88 139t-88 -139z" />
    <glyph glyph-name="o" unicode="o" 
d="M358 182v862q0 49 -24 74q-25 25 -64 25q-40 0 -64 -25t-24 -74v-862q0 -48 25 -72t63 -24t64 24q24 24 24 72zM469 201q0 -99 -56 -155q-57 -56 -143 -56t-142 55t-56 156v827q0 100 56 156t142 55q86 0 142 -56t57 -155v-827z" />
    <glyph glyph-name="p" unicode="p" 
d="M182 225q0 -139 88 -139t88 139v779q0 139 -88 139t-88 -139v-779zM311 -10q-90 0 -129 96v-270h-110v1413h110v-86q39 96 129 96q158 0 158 -211v-827q0 -211 -158 -211z" />
    <glyph glyph-name="q" unicode="q" 
d="M182 225q0 -139 88 -139t88 139v779q0 139 -88 139t-88 -139v-779zM469 1229v-1413h-111v274q-35 -100 -129 -100q-158 0 -157 211v827q0 211 157 211q94 0 129 -100v90h111z" />
    <glyph glyph-name="r" unicode="r" horiz-adv-x="471" 
d="M182 1004v-1004h-110v1229h110v-84q35 94 121 94q147 0 148 -211v-190h-111v166q0 139 -79 139t-79 -139z" />
    <glyph glyph-name="s" unicode="s" horiz-adv-x="473" 
d="M37 399h110v-206q0 -117 89 -117q42 0 66 32t24 124t-31 170q-31 79 -111 197t-113 198q-34 81 -34 203t56 186q55 64 145 63q90 0 143 -55t53 -156v-190h-110v186q0 119 -88 119t-89 -139q0 -106 27 -178t109 -183q152 -203 151 -409q0 -131 -55 -198q-55 -66 -144 -66
t-144 56q-54 56 -54 154v209z" />
    <glyph glyph-name="t" unicode="t" horiz-adv-x="493" 
d="M475 201q0 -109 -51 -160t-136 -51t-137 56t-53 155v925h-92v103h92v84q76 25 76 141h35v-225h201v-103h-201v-944q0 -96 78 -96t78 96v254h110v-235z" />
    <glyph glyph-name="u" unicode="u" 
d="M358 0v90q-35 -100 -129 -100q-158 0 -157 211v1028h110v-1004q0 -139 88 -139t88 139v1004h111v-1229h-111z" />
    <glyph glyph-name="v" unicode="v" horiz-adv-x="505" 
d="M145 1229l109 -1094l106 1094h111l-137 -1229h-162l-137 1229h110z" />
    <glyph glyph-name="w" unicode="w" horiz-adv-x="815" 
d="M510 0l-102 1006l-103 -1006h-164l-80 1229h111l59 -1106l111 1106h129l115 -1106l57 1106h111l-78 -1229h-166z" />
    <glyph glyph-name="x" unicode="x" horiz-adv-x="487" 
d="M352 0l-121 453l-108 -453h-107l170 621l-163 608h112l123 -457l107 457h106l-170 -619l164 -610h-113z" />
    <glyph glyph-name="y" unicode="y" 
d="M469 16q0 -94 -57 -152q-58 -58 -144 -58t-141 52t-55 158v29h110v-47q0 -43 26 -70q26 -26 62 -26t63 26q26 26 25 70v211q-35 -100 -129 -100q-158 0 -157 210v910h110v-885q0 -139 88 -139t88 139v885h111v-1213z" />
    <glyph glyph-name="z" unicode="z" horiz-adv-x="452" 
d="M420 96v-96h-397v72l280 1061h-283v96h398v-72l-279 -1061h281z" />
    <glyph glyph-name="guillemotleft" unicode="&#xab;" horiz-adv-x="428" 
d="M412 401h-82l-129 289l131 293h80l-125 -293zM227 401h-82l-129 289l131 293h80l-125 -293z" />
    <glyph glyph-name="guillemotright" unicode="&#xbb;" horiz-adv-x="428" 
d="M201 983h82l129 -291l-129 -291h-82l127 291zM16 983h82l129 -291l-129 -291h-82l127 291z" />
    <glyph glyph-name="quoteleft" unicode="&#x2018;" horiz-adv-x="202" 
d="M31 1055v184q0 168 119 199l22 -54q-72 -23 -72 -120v-45h58v-164h-127z" />
    <glyph glyph-name="quoteright" unicode="&#x2019;" horiz-adv-x="202" 
d="M172 1434v-185q0 -168 -119 -198l-22 53q72 23 71 121v45h-57v164h127z" />
    <glyph glyph-name="quotedblleft" unicode="&#x201c;" horiz-adv-x="415" 
d="M244 1055v184q0 168 118 199l23 -54q-72 -23 -72 -120v-45h58v-164h-127zM31 1055v184q0 168 119 199l22 -54q-72 -23 -72 -120v-45h58v-164h-127z" />
    <glyph glyph-name="quotedblright" unicode="&#x201d;" horiz-adv-x="415" 
d="M385 1434v-185q0 -168 -119 -198l-22 53q72 23 71 121v45h-57v164h127zM172 1434v-185q0 -168 -119 -198l-22 53q72 23 71 121v45h-57v164h127z" />
    </font>
</defs>
</svg>
